<svg width="50" height="50" viewBox="0 0 50 50" fill="none" xmlns="http://www.w3.org/2000/svg">
<circle cx="25" cy="25" r="15" fill="#E5E5E5"/>
<path d="M25 0L29.3301 7.5H20.6699L25 0Z" fill="#E5E5E5"/>
<path d="M50 25L42.5 29.3301L42.5 20.6699L50 25Z" fill="#E5E5E5"/>
<path d="M2.18557e-07 25L7.5 29.3301L7.5 20.6699L2.18557e-07 25Z" fill="#E5E5E5"/>
<path d="M6.53553 43.6066L14.9007 41.3651L8.77697 35.2414L6.53553 43.6066Z" fill="#E5E5E5"/>
<path d="M43.6068 43.6066L41.3654 35.2414L35.2417 41.3651L43.6068 43.6066Z" fill="#E5E5E5"/>
<path d="M6.53576 6.53553L8.77719 14.9007L14.9009 8.77697L6.53576 6.53553Z" fill="#E5E5E5"/>
<path d="M34.2941 8.77706L42.6593 6.53562L40.4178 14.9008L34.2941 8.77706Z" fill="#E5E5E5"/>
<path d="M25 50L29.3301 42.5H20.6699L25 50Z" fill="#E5E5E5"/>
</svg>
